<svg width="20" height="20" viewBox="0 0 20 20" fill="none" xmlns="http://www.w3.org/2000/svg">
<path d="M2.85714 20C4.4351 20 5.71429 18.7208 5.71429 17.1429C5.71429 15.5649 4.4351 14.2857 2.85714 14.2857C1.27919 14.2857 0 15.5649 0 17.1429C0 18.7208 1.27919 20 2.85714 20Z" fill="#FFA000"/>
<path d="M0 6.66714V10.4771C5.25143 10.4771 9.52429 14.7486 9.52429 20H13.3329C13.3329 12.6486 7.35143 6.66714 0 6.66714Z" fill="#FFA000"/>
<path d="M0 0V3.81C8.92857 3.81 16.1914 11.0714 16.1914 20H20C20 8.97143 11.0286 0 0 0Z" fill="#FFA000"/>
</svg>
